<svg id="图层_5" data-name="图层 5" xmlns="http://www.w3.org/2000/svg" viewBox="0 0 456.26 456.26"><defs><style>.cls-1{fill:#231815;}.cls-2{fill:#fff;}</style></defs><rect class="cls-1" width="456.26" height="456.26" rx="35.58"/><path class="cls-2" d="M475.85,204.68a29.21,29.21,0,0,1-8.31,7l-87.81,50.66q-25.28,14.6-50.55,29.19a30.7,30.7,0,0,1-18.24,4.06,32.18,32.18,0,0,1-13.68-59.91l102.79-59.35Q418,166,435.87,155.71a28.88,28.88,0,0,1,10-3.54,30.57,30.57,0,0,0-8.57,39.16,29.82,29.82,0,0,0,16.8,14.07A30.46,30.46,0,0,0,475.85,204.68Zm-163.3,39.61A19.64,19.64,0,1,0,332.14,264C332.17,252.88,322.91,244.09,312.55,244.29Z" transform="translate(-177.91 -51.44)"/><path class="cls-2" d="M312.57,301.08a39.54,39.54,0,0,0,19.57-5.26c4.1-2.35,8.18-4.73,12.28-7.09q18.22-10.53,36.45-21.06a2.09,2.09,0,0,1,2.44,0Q425.49,292,467.7,316.4c8.79,5.1,13.95,12.85,15.57,22.91a31.84,31.84,0,0,1-26,36.52c-8.24,1.52-15.92-.3-23.21-4.52q-60.1-34.86-120.32-69.55C313.33,301.54,313,301.31,312.57,301.08Zm120.15,43.36a19.55,19.55,0,0,0,18.08,19.79A19.65,19.65,0,1,0,452.4,325,19.5,19.5,0,0,0,432.72,344.44Z" transform="translate(-177.91 -51.44)"/><path class="cls-2" d="M452.75,381.72q-6.57,3.81-13.16,7.62-35.43,20.46-70.88,40.88a5,5,0,0,1-2.36.67q-41.55,0-83.08,0h-1.44a32.28,32.28,0,0,1,15.6-33.85q42.24-24.35,84.43-48.78a2.18,2.18,0,0,1,2.52.18q24.17,14,48.36,27.93A39.46,39.46,0,0,0,452.75,381.72ZM297.6,421.79a4.84,4.84,0,0,0-4.66-5,5.08,5.08,0,0,0-4.94,4.81,4.82,4.82,0,0,0,4.68,4.82A4.6,4.6,0,0,0,297.6,421.79Zm60-.17a4.6,4.6,0,0,0,4.74,4.81,4.78,4.78,0,0,0,4.85-4.8,5.06,5.06,0,0,0-4.91-4.83A4.85,4.85,0,0,0,357.61,421.62Z" transform="translate(-177.91 -51.44)"/><path class="cls-2" d="M402.22,459.17q-80.34,0-160.67,0c-3.68,0-6.44-2.23-5.84-6.53a2,2,0,0,1,.66-1q8.13-7.51,16.3-15a4.26,4.26,0,0,1,1.69-.67,4.8,4.8,0,0,1,1.14,0q146.78,0,293.55,0a4.47,4.47,0,0,1,3.39,1.3c4.93,4.61,9.88,9.19,14.92,13.7,1.83,1.64,1.34,3.47.81,5.24s-2.25,2.71-4.3,2.9c-.49,0-1,0-1.47,0Z" transform="translate(-177.91 -51.44)"/><path class="cls-2" d="M438.66,177.57c0-12.92,8.66-23.38,20.4-25.56A25.21,25.21,0,0,1,473,153.28a2.68,2.68,0,0,0,2.52-.17c3.12-1.77,6.28-3.47,9.42-5.23a1.57,1.57,0,0,0,.73-.8c1.84-7.36,3.63-14.73,5.46-22.1,1-3.94,1.9-7.9,3-11.8a7.06,7.06,0,0,1,5.18-5.33c5.62-1.49,11.21-3.11,16.81-4.7,5.22-1.49,10.39-3.18,15.66-4.45,3.16-.76,6.34,0,7.36,4a31.38,31.38,0,0,1,1.15,5.44,5.09,5.09,0,0,1-4,5.11c-6.36,1.76-12.71,3.59-19.06,5.41-2.73.77-5.44,1.61-8.17,2.35a1.91,1.91,0,0,0-1.54,1.67c-1.78,7.22-3.69,14.41-5.5,21.62a2.61,2.61,0,0,0,.32,1.66c2.5,4.86,5,9.7,7.6,14.51a2.56,2.56,0,0,0,1.43,1.07c7.28,2.27,14.6,4.46,21.87,6.78a2.39,2.39,0,0,0,2.8-.64c4.24-4.06,8.57-8,12.87-12,2.33-2.16,4.75-4.23,7-6.46,2.63-2.59,6.5-2.68,8.89.06a22,22,0,0,0,1.8,1.81,6.23,6.23,0,0,1-.48,9.64,40.62,40.62,0,0,0-4.4,4c-3.41,3.21-6.8,6.44-10.23,9.62s-6.77,6.28-10.24,9.32c-2.12,1.86-4.67,1.71-7.16,1-7-2.13-13.92-4.33-20.88-6.51l-11.34-3.56a2.33,2.33,0,0,1-.81-.32c-1.31-1.13-2.53-.67-3.85,0-2.15,1.15-4.33,2.27-6.58,3.23a3.13,3.13,0,0,0-2,2.82c-1.4,11-10.68,19.91-21.66,21.33a25.26,25.26,0,0,1-27.78-19.58A40.07,40.07,0,0,1,438.66,177.57Zm38.91-.84a13.79,13.79,0,1,0-14,13.8C471.49,190.68,477.85,184,477.57,176.73ZM507,115.86a4.84,4.84,0,0,0-4.64-5,5.09,5.09,0,0,0-4.95,4.8,4.81,4.81,0,0,0,4.67,4.83A4.59,4.59,0,0,0,507,115.86Zm29.75,65.36a4.6,4.6,0,0,0,4.79-4.77,4.8,4.8,0,0,0-4.83-4.83,5.09,5.09,0,0,0-4.8,4.8A4.81,4.81,0,0,0,536.78,181.22Z" transform="translate(-177.91 -51.44)"/></svg>